<?xml version="1.0" standalone="no"?><!DOCTYPE svg PUBLIC "-//W3C//DTD SVG 1.1//EN" "http://www.w3.org/Graphics/SVG/1.1/DTD/svg11.dtd"><svg t="1559268364649" class="icon" style="" viewBox="0 0 2538 1024" version="1.1" xmlns="http://www.w3.org/2000/svg" p-id="5949" xmlns:xlink="http://www.w3.org/1999/xlink" width="317.25" height="128"><defs><style type="text/css"></style></defs><path d="M127.82465799 723.813699h2085.873972c35.068493 0 63.824658-29.457534 63.824658-65.227398 0-36.471233-28.756164-65.227397-63.824658-65.227397H127.82465799c-35.068493 0-63.824658 29.457534-63.824658 65.227397 0 36.471233 28.756164 65.227397 63.824658 65.227398zM453.96164399 953.863014h301.589041c20.339726 0 37.172603-16.832877 37.172603-37.873973 0-21.041096-16.832877-37.873973-37.172603-37.873973h-301.589041c-20.339726 0-37.172603 16.832877-37.172603 37.873973 0.70137 21.041096 16.832877 37.873973 37.172603 37.873973zM2325.21643799 650.871233h247.583562c16.832877 0 30.158904-14.027397 30.158904-31.561644s-13.326027-31.561644-30.158904-31.561644h-247.583562c-16.832877 0-30.158904 14.027397-30.158904 31.561644s13.326027 31.561644 30.158904 31.561644z" fill="#EBF7FF" p-id="5950"></path><path d="M210.58630099 848.657534h2186.169863c36.471233 0 65.227397-29.457534 65.227398-65.227397 0-36.471233-29.457534-65.227397-65.227398-65.227397H210.58630099c-36.471233 0-65.227397 29.457534-65.227397 65.227397-0.70137 35.769863 28.756164 65.227397 65.227397 65.227397z" fill="#EBF7FF" p-id="5951"></path><path d="M1040.59908632 335.254795h-16.131506V152.19726c0-37.873973 1.40274-60.317808 4.208219-93.282192H912.94977132c-14.728767 21.742466-25.249315 35.769863-52.602739 67.331507L738.30867532 268.624658c-28.756164 33.665753-28.756164 33.665753-54.005479 61.720547v100.997261c21.041096-1.40274 36.471233-2.10411 73.643836-2.10411h159.912328v27.353425c0 27.353425-1.40274 51.2-4.208219 70.136986h116.427397c-3.506849-21.742466-4.208219-37.873973-4.208219-69.435616v-28.054795h16.832877c17.534247 0 38.575342 1.40274 55.408219 3.506849V330.345205c-21.041096 2.805479-39.978082 4.909589-57.512329 4.90959z m-122.739726-64.526028v65.227397h-114.323287l82.060274-100.29589c15.430137-18.936986 23.846575-30.158904 35.068493-46.290411-2.10411 25.249315-2.805479 56.109589-2.80548 81.358904zM1504.90593632 163.419178c-8.416438-22.443836-22.443836-44.186301-41.380822-62.421918-34.367123-33.665753-82.060274-52.60274-137.468493-52.602739-70.838356 0-129.753425 31.561644-164.120548 89.073972-21.742466 35.769863-35.769863 96.789041-35.769863 155.70411 0 45.589041 7.013699 89.073973 21.742465 129.052055 8.416438 22.443836 22.443836 44.186301 41.380822 62.421917 34.367123 34.367123 81.358904 52.60274 136.767124 52.60274 71.539726 0 131.156164-31.561644 164.821917-87.671233 21.742466-35.769863 35.769863-97.490411 35.769863-156.405479 0.70137-46.290411-7.013699-89.775342-21.742465-129.753425zM1327.45936032 441.863014c-56.109589 0-84.865753-51.90137-84.865753-152.89863 0-91.879452 30.860274-145.183562 84.164384-145.183562 54.706849 0 84.164384 50.49863 84.164383 147.287671 0 99.594521-28.054795 150.794521-83.463014 150.794521zM1913.10319632 335.254795h-16.131507V152.19726c0-37.873973 1.40274-60.317808 4.208219-93.282192h-115.726027c-14.728767 21.742466-25.249315 35.769863-52.60274 67.331507l-122.739726 143.079452c-28.756164 33.665753-28.756164 33.665753-54.005479 61.720548v100.997261c21.041096-1.40274 36.471233-2.10411 73.643835-2.10411H1789.66210032v27.353425c0 27.353425-1.40274 51.2-4.208219 70.136986H1901.88127832c-3.506849-21.742466-4.208219-37.873973-4.208219-69.435616v-28.054795h16.832877c17.534247 0 38.575342 1.40274 55.408219 3.506849V330.345205c-20.339726 2.805479-39.276712 4.909589-56.810959 4.90959z m-122.739726-64.526028v65.227397h-114.323288l82.060274-100.29589c15.430137-18.936986 23.846575-30.158904 35.068493-46.290411-2.10411 25.249315-2.805479 56.109589-2.805479 81.358904zM2298.15525132 537.950685l-257.40274-0.70137V280.547945c142.378082 0 257.40274 115.024658 257.40274 257.40274zM234.72511432 537.950685c0-206.90411 167.627397-374.531507 375.232877-374.531507v373.128767l-375.232877 1.40274z" fill="#CFF0FF" p-id="5952"></path><path d="M952.460274 740.646575c42.082192-8.416438 73.643836-25.950685 71.539726-39.978082-2.805479-14.027397-39.276712-18.936986-81.358904-10.520548s-73.643836 25.950685-71.539726 39.978082m176.043835-142.378082c42.082192-8.416438 73.643836-25.950685 71.539727-39.978082-2.805479-14.027397-39.276712-18.936986-81.358905-10.520548-42.082192 8.416438-73.643836 25.950685-71.539726 39.978082m758.180822 218.126028c24.547945-9.117808 40.679452-21.041096 38.575343-31.561644-2.805479-14.027397-39.276712-18.936986-81.358904-10.520548-42.082192 8.416438-73.643836 25.950685-71.539726 39.978082m394.169863-49.79726c24.547945-9.117808 40.679452-21.041096 38.575342-31.561644-2.805479-14.027397-39.276712-18.936986-81.358904-10.520548-42.082192 8.416438-73.643836 25.950685-71.539726 39.978082m124.142466-75.747945c42.082192-8.416438 73.643836-25.950685 71.539726-39.978082-2.805479-14.027397-39.276712-18.936986-81.358904-10.520548-42.082192 8.416438-73.643836 25.950685-71.539726 39.978082" fill="#396B99" p-id="5953"></path><path d="M1069.589041 590.553425c0-88.372603-71.539726-159.912329-159.912329-159.912329s-159.912329 71.539726-159.912328 159.912329" fill="#F9DA3E" p-id="5954"></path><path d="M573.019178 318.421918l204.8 204.8-31.561644 31.561644-204.8-204.8 31.561644-31.561644z m-61.720548 58.915068L716.09863 582.136986l-31.561644 31.561644-204.8-204.8 31.561644-31.561644z m-63.123288 61.019178l204.8 204.8-31.561643 31.561644L416.613699 469.917808l31.561643-31.561644z m-61.019178 61.019178l204.8 204.8-31.561643 31.561644-204.8-204.8 31.561643-31.561644z m-51.901369 70.838357L540.054795 775.013699l-31.561644 31.561643-204.8-204.8 31.561644-31.561643z" fill="#CFF0FF" p-id="5955"></path><path d="M2054.89680366 665.6c0-129.753425-105.205479-234.958904-234.958904-234.958904s-234.958904 105.205479-234.958904 234.958904" fill="#568EC8" p-id="5956"></path><path d="M1102.553425 616.50411c0-28.756164-23.846575-51.90137-52.60274-51.90137-29.457534 0-52.60274 23.145205-52.60274 51.90137m509.895891-37.873973c0-37.873973-30.860274-68.032877-69.435617-68.032877s-69.435616 30.860274-69.435616 68.032877" fill="#396B99" p-id="5957"></path><path d="M1643.309589 741.347945c0-82.761644-68.734247-150.794521-152.89863-150.79452s-152.89863 67.331507-152.89863 150.79452" fill="#78C5FD" p-id="5958"></path><path d="M1723.265753 795.353425c0-44.186301-35.769863-79.956164-79.956164-79.956165s-79.956164 35.769863-79.956164 79.956165" fill="#396B99" p-id="5959"></path><path d="M651.572603 791.145205l-152.197261 0.70137c0-124.142466 100.29589-184.460274 224.438357-184.460274v138.871233" fill="#0E1D80" fill-opacity=".1" p-id="5960"></path><path d="M449.16894933 791.846575c0-124.142466 100.29589-224.438356 224.438357-224.438356v223.736986" fill="#78C5FD" p-id="5961"></path><path d="M1997.50137 744.854795c0-79.956164-64.526027-144.482192-144.482192-144.482192v143.780822" fill="#F9DA3E" p-id="5962"></path><path d="M1798.312329 627.726027c0 6.312329 4.208219 11.221918 9.117808 11.221918s9.117808-4.909589 9.117808-11.221918-4.208219-11.221918-9.117808-11.221917-9.117808 4.909589-9.117808 11.221917zM1763.243836 627.726027c0 6.312329 4.208219 11.221918 9.117808 11.221918 4.909589 0 9.117808-4.909589 9.117808-11.221918s-4.208219-11.221918-9.117808-11.221917c-4.909589 0-9.117808 4.909589-9.117808 11.221917zM1728.175342 627.726027c0 6.312329 4.208219 11.221918 9.117809 11.221918 4.909589 0 9.117808-4.909589 9.117808-11.221918 0-6.312329-4.208219-11.221918-9.117808-11.221917-4.909589 0-9.117808 4.909589-9.117809 11.221917zM1690.30137 627.726027c0 6.312329 4.208219 11.221918 9.117808 11.221918 4.909589 0 9.117808-4.909589 9.117808-11.221918s-4.208219-11.221918-9.117808-11.221917c-4.909589 0-9.117808 4.909589-9.117808 11.221917zM1655.232877 627.726027c0 6.312329 4.208219 11.221918 9.117808 11.221918 4.909589 0 9.117808-4.909589 9.117808-11.221918s-4.208219-11.221918-9.117808-11.221917c-4.909589 0-9.117808 4.909589-9.117808 11.221917zM1798.312329 594.761644c0 6.312329 4.208219 11.221918 9.117808 11.221918s9.117808-4.909589 9.117808-11.221918-4.208219-11.221918-9.117808-11.221918-9.117808 4.909589-9.117808 11.221918zM1763.243836 594.761644c0 6.312329 4.208219 11.221918 9.117808 11.221918 4.909589 0 9.117808-4.909589 9.117808-11.221918s-4.208219-11.221918-9.117808-11.221918c-4.909589 0-9.117808 4.909589-9.117808 11.221918zM1728.175342 594.761644c0 6.312329 4.208219 11.221918 9.117809 11.221918 4.909589 0 9.117808-4.909589 9.117808-11.221918 0-6.312329-4.208219-11.221918-9.117808-11.221918-4.909589 0-9.117808 4.909589-9.117809 11.221918zM1690.30137 594.761644c0 6.312329 4.208219 11.221918 9.117808 11.221918 4.909589 0 9.117808-4.909589 9.117808-11.221918s-4.208219-11.221918-9.117808-11.221918c-4.909589 0-9.117808 4.909589-9.117808 11.221918zM1798.312329 559.693151c0 6.312329 4.208219 11.221918 9.117808 11.221917s9.117808-4.909589 9.117808-11.221917-4.208219-11.221918-9.117808-11.221918-9.117808 4.909589-9.117808 11.221918zM1763.243836 559.693151c0 6.312329 4.208219 11.221918 9.117808 11.221917 4.909589 0 9.117808-4.909589 9.117808-11.221917s-4.208219-11.221918-9.117808-11.221918c-4.909589 0-9.117808 4.909589-9.117808 11.221918zM1728.175342 559.693151c0 6.312329 4.208219 11.221918 9.117809 11.221917 4.909589 0 9.117808-4.909589 9.117808-11.221917 0-6.312329-4.208219-11.221918-9.117808-11.221918-4.909589 0-9.117808 4.909589-9.117809 11.221918zM1798.312329 523.923288c0 6.312329 4.208219 11.221918 9.117808 11.221917s9.117808-4.909589 9.117808-11.221917-4.208219-11.221918-9.117808-11.221918-9.117808 5.610959-9.117808 11.221918zM1763.243836 523.923288c0 6.312329 4.208219 11.221918 9.117808 11.221917 4.909589 0 9.117808-4.909589 9.117808-11.221917s-4.208219-11.221918-9.117808-11.221918c-4.909589 0.70137-9.117808 5.610959-9.117808 11.221918zM1798.312329 488.854795c0 6.312329 4.909589 11.221918 11.221918 11.221917 6.312329 0 11.221918-4.909589 11.221917-11.221917s-4.909589-11.221918-11.221917-11.221918c-6.312329 0-11.221918 4.909589-11.221918 11.221918z" fill="#CFF0FF" p-id="5963"></path><path d="M1077.30411 851.463014c0 18.936986 65.227397 34.367123 145.884931 34.367123s145.884932-15.430137 145.884932-34.367123-65.227397-34.367123-145.884932-34.367124-145.884932 15.430137-145.884931 34.367124z" fill="#396B99" p-id="5964"></path><path d="M1173.391781 723.813699c11.221918 24.547945 0.70137 132.558904-2.80548 132.558904l-6.312328 0.70137-4.20822-52.60274s-12.624658-68.734247-13.326027-74.345206l18.235616-11.221917 8.416439 4.909589z" fill="#396B99" p-id="5965"></path><path d="M1139.024658 718.20274l12.624657 11.221918c4.909589 0.70137-13.326027 120.635616-21.041096 125.545205l-6.312329-0.70137v-60.317808c0-11.923288-6.312329-51.90137-2.805479-71.539726" fill="#396B99" p-id="5966"></path><path d="M1136.219178 640.350685l17.534247 4.909589-0.70137-10.520548-13.326028-10.520548c0 5.610959-3.506849 16.131507-3.506849 16.131507z" fill="#FFE4A8" p-id="5967"></path><path d="M1153.753425 635.441096s-7.715068-4.909589-9.819178-7.715069c-5.610959-4.909589 8.416438-23.145205 13.326027-23.145205l11.923288 5.610959 2.805479 7.013698-2.104109 11.221918-3.50685-0.70137-5.610959 9.117809-7.013698-1.40274z" fill="#FFE4A8" p-id="5968"></path><path d="M1171.989041 615.80274c-3.506849 0-14.728767-4.909589-14.728767-7.013699 0.70137 2.10411-3.506849 10.520548-7.013699 10.520548s-10.520548-9.117808-11.221917-3.506849c0.70137 1.40274 3.506849 15.430137 0 14.027397-14.027397-3.506849-8.416438-39.276712 18.235616-35.769863 36.471233 10.520548 18.235616 21.742466 14.728767 21.742466z" fill="#396B99" p-id="5969"></path><path d="M1139.024658 622.816438c-2.805479-3.506849 0-10.520548 3.506849-10.520548 2.10411 0 4.909589 1.40274 5.610959 3.50685 2.805479 12.624658-4.208219 15.430137-9.117808 7.013698z" fill="#FFE4A8" p-id="5970"></path><path d="M1162.871233 638.947945c4.208219 1.40274 9.117808 9.819178 9.117808 14.027397 0.70137 4.909589-0.70137 19.638356-0.70137 19.638357l18.936987-6.312329-0.70137 6.312329s-13.326027 9.819178-18.936987 11.923287c-2.10411 0.70137-5.610959 0-7.013698-0.70137-7.715068-4.208219-15.430137-19.638356-14.027398-30.860274 0-0.70137-2.10411-17.534247 13.326028-14.027397z" fill="#78C5FD" p-id="5971"></path><path d="M1119.386301 739.243836c10.520548 7.013699 49.79726 7.013699 56.810959-0.70137 4.909589-17.534247-5.610959-89.073973-12.624657-95.386302 0-1.40274-9.117808-5.610959-9.117808-5.610959s-14.728767-5.610959-19.638357-2.805479c-7.715068 9.117808-23.145205 86.969863-15.430137 104.50411z" fill="#568EC8" p-id="5972"></path><path d="M1109.567123 636.843836c-0.70137 3.506849 1.40274 4.208219 4.208219 5.610959 7.715068 3.506849 1.40274 21.041096-11.923287 35.068493-16.131507 16.832877 5.610959 47.693151 23.846575 33.665753 5.610959-4.208219 4.208219-16.832877 4.208219-16.832877v-48.39452l3.50685-2.10411 7.715068 4.208219c-4.909589 11.923288-4.909589 21.742466 0 24.547946 2.10411 1.40274 3.506849 1.40274 5.610959 0 0.70137-2.805479 4.208219-14.728767 1.40274-28.756165-4.909589-11.221918-37.172603-17.534247-38.575343-7.013698z" fill="#396B99" p-id="5973"></path><path d="M1131.309589 641.753425c-19.638356 14.728767-9.117808 58.213699-3.506849 59.616438 11.221918 2.10411 37.172603-12.624658 37.172602-12.624658l-0.701369-5.610958-26.652055-0.70137s8.416438-31.561644 2.805479-38.575343c-1.40274-1.40274-4.208219-2.10411-9.117808-2.104109z" fill="#78C5FD" p-id="5974"></path><path d="M1165.676712 667.00274c1.40274 2.10411 4.208219 2.10411 4.909589 0 0.70137 0-1.40274-27.353425-7.715068-29.457535-2.805479-2.10411-7.013699 0.70137-4.909589 2.10411 6.312329 1.40274 8.416438 28.756164 7.715068 27.353425z" fill="#396B99" p-id="5975"></path><path d="M1190.926027 657.884932l-21.742465-3.50685-3.50685 39.276713 21.742466 3.506849 11.221918-3.506849 7.013699-42.783562-14.728768 7.013699z" fill="#FFE4A8" p-id="5976"></path><path d="M1192.328767 657.884932l2.10411 0.701369-7.013699 39.276713-2.10411-0.70137 7.013699-39.276712z" fill="#F49130" p-id="5977"></path><path d="M1172.690411 682.432877c1.40274 2.10411 0.70137 4.208219-1.40274 5.610959-1.40274 1.40274-7.013699 1.40274-7.715068 0.701369-1.40274-1.40274-2.805479-3.506849-2.10411-5.610958 0.70137-2.805479 9.117808-4.208219 11.221918-0.70137z" fill="#FFE4A8" p-id="5978"></path><path d="M1143.934247 861.983562c1.40274-2.10411-7.715068-7.715068-12.624658-9.819178l-8.416438-0.70137c-0.70137 2.805479-4.909589 6.312329-3.50685 8.416438 2.10411 2.10411 22.443836 4.208219 24.547946 2.10411z m42.082191-2.10411c1.40274-2.10411-8.416438-5.610959-13.326027-7.013699l-8.416438-0.701369c-0.70137 2.10411-4.909589 4.909589-2.80548 7.013698 2.10411 2.10411 23.145205 2.805479 24.547945 0.70137zM1327.693151 859.879452c-3.506849 2.805479-25.249315 1.40274-26.652055 0-1.40274-1.40274 1.40274-9.819178 1.40274-9.819178h11.221917c0-0.70137 17.534247 6.312329 14.027398 9.819178z m-108.712329-7.013699c3.506849 0-1.40274-18.936986-1.40274-18.936986l-7.013698-6.312329s-8.416438 2.805479-8.416439 5.610959c-0.70137 2.805479 13.326027 19.638356 16.832877 19.638356z" fill="#F49130" p-id="5979"></path><path d="M1279.29863 732.931507l23.846575-2.80548c7.715068 18.235616 11.923288 39.978082 13.326028 62.421918l-3.506849 58.915069-10.520548 2.805479-4.20822-54.706849c0.70137 0.70137-19.638356-39.276712-18.936986-66.630137z" fill="#396B99" p-id="5980"></path><path d="M1247.736986 730.126027v58.915069l-38.575342 39.978082 6.312329 9.819178s46.991781-32.964384 56.810959-46.290411c4.208219-5.610959 14.027397-61.720548 14.027397-61.720548h-38.575343z" fill="#396B99" p-id="5981"></path><path d="M1290.520548 630.531507l4.909589-2.80548s8.416438 7.715068 7.715068 9.117809-4.909589 4.208219-7.013698 0.701369c-2.10411-2.805479-5.610959-7.013699-5.610959-7.013698z" fill="#FFE4A8" p-id="5982"></path><path d="M1295.430137 637.545205l8.416438-1.402739s8.416438 12.624658 7.013699 16.832876c-1.40274 4.208219-16.131507 15.430137-16.131507 15.430137l-8.416438-11.923287 12.624657-8.416439-3.506849-10.520548z" fill="#78C5FD" p-id="5983"></path><path d="M1263.868493 645.260274l18.936986 4.909589-1.402739-11.923288-16.131507-9.819178-1.40274 16.832877z" fill="#FFE4A8" p-id="5984"></path><path d="M1293.326027 675.419178c1.40274 2.10411 4.208219 2.10411 4.909589 0 0.70137 0-1.40274-26.652055-7.715068-29.457534-2.805479-2.10411-7.013699 0.70137-4.909589 2.104109 6.312329 1.40274 9.117808 28.054795 7.715068 27.353425z" fill="#396B99" p-id="5985"></path><path d="M1264.569863 643.857534c4.208219-1.40274 21.041096 2.10411 23.145205 4.208219 2.10411 2.10411 9.819178 21.041096 11.923288 28.756165 5.610959 17.534247 16.832877 65.928767 12.624658 70.838356-4.208219 5.610959-58.213699 7.013699-65.928767 2.805479-6.312329-3.506849-2.10411-61.019178 2.805479-80.657534 2.805479-7.715068 10.520548-24.547945 15.430137-25.950685z" fill="#568EC8" p-id="5986"></path><path d="M1218.279452 799.561644c-0.70137-0.70137-0.70137-1.40274 0-2.10411l101.69863-105.205479c0.70137-0.70137 1.40274-0.70137 2.10411 0 0.70137 0.70137 0.70137 1.40274 0 2.104109L1220.383562 799.561644h-2.10411z" fill="#1B5A89" p-id="5987"></path><path d="M1279.29863 704.876712h23.846575l0.70137 6.312329-24.547945 3.506849v-9.819178z" fill="#FFE4A8" p-id="5988"></path><path d="M1237.917808 648.065753c-0.70137 3.506849 1.40274 4.909589 4.909589 6.312329 9.117808 3.506849 2.10411 23.846575-12.624657 38.575343-17.534247 18.936986 7.715068 52.60274 27.353424 37.172602 6.312329-4.909589 4.208219-18.235616 4.20822-18.235616l-1.40274-53.30411 3.506849-2.805479 9.117808 4.208219c-4.909589 13.326027-4.909589 23.846575 0.70137 27.353425 2.10411 1.40274 3.506849 1.40274 5.610959 0 1.40274-3.506849 4.208219-16.131507 1.40274-31.561644-5.610959-14.027397-41.380822-19.638356-42.783562-7.715069z" fill="#396B99" p-id="5989"></path><path d="M1261.764384 652.273973c-6.312329 5.610959-9.117808 16.131507-11.221918 27.353424-2.805479 31.561644 7.013699 40.679452 11.221918 40.679452 4.208219 0 22.443836-2.805479 22.443835-2.805479l-0.70137-12.624658-16.131507-0.70137s8.416438-21.742466 7.013699-39.978082c0-4.909589-4.208219-15.430137-12.624657-11.923287z" fill="#78C5FD" p-id="5990"></path><path d="M1310.860274 701.369863c2.10411 0.70137 2.10411 3.506849 2.10411 3.506849-0.70137 2.10411-4.208219 7.715068-6.312329 7.715069-2.10411 0-7.715068-2.10411-4.909589-5.610959 2.10411-4.208219 7.013699-6.312329 9.117808-5.610959z m-24.547945-58.915068l5.610959-9.117809 4.208219-0.70137-1.40274-18.235616-13.326027-9.117808-16.131507 9.117808-0.70137 18.936986c6.312329 7.715068 21.742466 9.117808 21.742466 9.117809z" fill="#FFE4A8" p-id="5991"></path><path d="M1274.389041 596.865753c7.715068-1.40274 16.131507-0.70137 20.339726 3.50685 4.208219 4.208219 6.312329 11.923288 0 16.131507-7.013699 0.70137-7.715068 2.805479-14.728767-0.70137 0 0-0.70137 3.506849-2.805479 6.312328-2.10411 3.506849-8.416438 1.40274-8.416439 1.40274s0 9.819178-7.013698 9.819178c-12.624658-1.40274-9.117808-30.860274 12.624657-36.471233z" fill="#396B99" p-id="5992"></path><path d="M1275.090411 625.621918c0-2.10411 0-4.909589-2.10411-5.610959-2.805479-2.10411-5.610959 0-5.610959 2.805479-0.70137 2.805479 1.40274 5.610959 3.50685 6.312329 2.10411 1.40274 4.208219-0.70137 4.208219-3.506849z" fill="#FFDB73" p-id="5993"></path></svg>