<?xml version="1.0" standalone="no"?><!DOCTYPE svg PUBLIC "-//W3C//DTD SVG 1.1//EN" "http://www.w3.org/Graphics/SVG/1.1/DTD/svg11.dtd"><svg t="1559271583402" class="icon" style="" viewBox="0 0 1026 1024" version="1.1" xmlns="http://www.w3.org/2000/svg" p-id="3318" xmlns:xlink="http://www.w3.org/1999/xlink" width="128.25" height="128"><defs><style type="text/css"></style></defs><path d="M195.047619 868.937143h-0.731429 0.731429z" fill="#263A49" p-id="3319"></path><path d="M194.56 868.937143h-1.219048 1.219048z" fill="#253847" p-id="3320"></path><path d="M192.853333 868.937143h-0.975238 0.975238z" fill="#243744" p-id="3321"></path><path d="M191.878095 868.937143s-0.24381 0 0 0z" fill="#233542" p-id="3322"></path><path d="M189.19619 868.693333z" fill="#223340" p-id="3323"></path><path d="M189.19619 868.693333h-0.731428 0.731428z" fill="#20313E" p-id="3324"></path><path d="M187.489524 868.449524s-0.24381 0 0 0c-0.24381-0.24381 0 0 0 0z" fill="#1F2F3B" p-id="3325"></path><path d="M1026.194286 670.47619v0.975239c0 0.487619 0 0.731429-0.24381 1.219047-0.24381 0.731429-0.24381 1.219048-0.487619 1.950476-0.24381 0.731429-0.487619 1.219048-0.975238 1.950477 0 0.24381-0.24381 0.24381-0.243809 0.487619-0.24381 0.487619-0.487619 0.731429-0.731429 1.219047l-0.24381 0.24381c-0.24381 0.24381-0.24381 0.487619-0.487619 0.731428-0.24381 0.487619-0.731429 0.975238-1.219047 1.219048-0.487619 0.487619-0.731429 0.975238-1.219048 1.219048-0.24381 0.24381-0.487619 0.487619-0.975238 0.731428-0.487619 0.487619-0.975238 0.731429-1.706667 1.219048-0.487619 0.487619-0.975238 0.731429-1.706666 1.219047-0.487619 0.24381-0.731429 0.487619-1.219048 0.731429-0.731429 0.487619-1.462857 0.975238-2.438095 1.219048l-624.152381 322.31619-2.925714 1.462857c-2.925714 1.219048-6.095238 2.438095-9.508572 3.169524-2.681905 0.731429-5.607619 1.219048-8.777143 1.706667l-5.851428 0.731428c-1.706667 0-3.169524 0.24381-4.876191 0.24381h-8.533333c-1.462857 0-2.681905-0.24381-3.900952-0.24381s-2.681905-0.24381-3.900953-0.487619-2.681905-0.487619-3.900952-0.731428c-1.462857-0.24381-2.681905-0.487619-3.900953-0.975238-1.462857-0.24381-2.925714-0.731429-4.388571-1.219048-1.706667-0.487619-3.413333-1.219048-4.87619-1.706667-1.219048-0.487619-2.194286-0.975238-3.413334-1.462857L16.822857 863.085714c-9.752381-4.632381-14.628571-10.971429-14.628571-17.310476v-30.47619c0 6.339048 4.87619 12.678095 14.628571 17.310476l303.055238 147.017143c0.975238 0.487619 2.194286 0.975238 3.413334 1.462857 1.706667 0.731429 3.169524 1.219048 4.87619 1.706666 1.462857 0.487619 2.925714 0.731429 4.388571 1.219048 1.219048 0.24381 2.681905 0.487619 3.900953 0.731429 1.219048 0.24381 2.681905 0.487619 3.900952 0.731428 1.219048 0.24381 2.681905 0.24381 3.900953 0.487619 1.219048 0 2.681905 0.24381 3.900952 0.24381 1.462857 0 2.681905 0 4.144762 0.243809h4.388571c1.706667 0 3.169524-0.24381 4.876191-0.243809l5.851428-0.731429c2.925714-0.487619 5.851429-0.975238 8.777143-1.706666 3.413333-0.975238 6.582857-1.950476 9.508572-3.169524l2.925714-1.462857 624.152381-322.316191 3.657143-2.194286c1.219048-0.731429 2.194286-1.706667 3.169524-2.438095l0.243809-0.243809c0.487619-0.24381 0.731429-0.731429 1.219048-0.975238l0.731428-0.731429 0.24381-0.24381c0.487619-0.487619 0.975238-1.219048 1.462857-1.706666 0 0 0.24381-0.24381 0.243809-0.487619 0.24381-0.487619 0.487619-0.731429 0.731429-1.219048 0-0.24381 0.24381-0.24381 0.24381-0.487619s0.24381-0.487619 0.243809-0.731428c0.24381-0.24381 0.24381-0.731429 0.487619-0.975239v-0.243809c0.24381-0.731429 0.487619-1.219048 0.487619-1.950476 0-0.24381 0-0.731429 0.24381-0.975238v-0.731429-0.487619V670.47619z" fill="#B7DCF6" p-id="3326"></path><path d="M1011.321905 622.445714c19.017143 9.264762 19.504762 24.624762 0.975238 34.377143l-624.152381 322.316191c-18.529524 9.508571-49.493333 9.752381-68.510476 0.487619L16.579048 832.609524c-19.017143-9.264762-19.504762-24.624762-0.975238-34.377143l624.15238-322.316191c18.529524-9.508571 49.493333-9.752381 68.510477-0.487619l303.055238 147.017143z" fill="#E2F4FF" p-id="3327"></path><path d="M379.611429 945.249524c-8.045714 0-17.066667-0.24381-22.186667-2.681905L89.478095 812.617143c-8.045714-3.900952-8.045714-15.11619-0.243809-19.260953L653.409524 502.00381c3.900952-1.950476 11.459048-4.144762 21.455238-4.144762 8.045714 0 15.847619 1.462857 20.723809 3.900952l282.819048 137.264762c0.975238 0.487619 0.975238 1.706667 0 2.194286L398.628571 940.617143c-5.851429 2.925714-12.434286 4.632381-19.017142 4.632381z" fill="#B7DCF6" p-id="3328"></path><path d="M627.809524 292.815238s49.493333-37.790476 47.055238-6.339048c0 0-2.194286 28.038095-40.716191 32.914286s-17.554286-19.017143-17.554285-19.017143l11.215238-7.558095z" fill="#FFAE84" p-id="3329"></path><path d="M423.253333 700.952381s-7.558095 64.365714 13.409524 66.56c0 0 31.451429 9.020952 10.971429-60.708571-20.48-69.729524-19.748571-17.798095-19.748572-17.798096l-4.632381 11.946667zM478.110476 677.790476v18.285714c0 2.925714 1.950476 5.851429 4.876191 6.582858 8.533333 2.438095 27.062857 9.020952 46.323809 21.455238 3.413333 2.194286 7.558095 2.925714 11.215238 1.462857 5.36381-1.950476 9.752381-7.558095-2.194285-22.430476l-1.462858-1.462857-30.47619-26.08762-28.281905 2.194286z" fill="#7D4C20" p-id="3330"></path><path d="M378.392381 324.998095l-9.752381-10.483809-17.066667 19.992381 13.409524 8.777143z" fill="#FFAE84" p-id="3331"></path><path d="M444.464762 381.805714s-16.335238 266.48381-22.186667 311.100953c-0.487619 4.144762 0.975238 8.289524 3.900953 10.971428 6.582857 6.095238 18.285714 12.921905 27.550476-5.363809l38.765714-204.068572c0.24381-0.975238 1.462857-0.731429 1.462857 0.24381-2.194286 36.327619-9.264762 149.942857-16.335238 186.514286 0 0 8.533333 13.409524 32.426667 0 0 0 48.518095-274.529524 37.546666-300.129524l-103.131428 0.731428z" fill="#22185B" p-id="3332"></path><path d="M472.746667 212.845714l-26.819048 20.967619c-10.48381 8.045714-18.285714 19.017143-23.161905 31.207619l-20.48 52.906667c-1.950476 5.12-8.045714 7.558095-12.921904 5.36381l-11.459048-5.12-15.36 27.062857 12.678095 5.607619c19.017143 8.533333 41.447619 1.219048 51.931429-16.579048l10.24-17.066667c1.462857-2.438095 5.12-1.462857 5.12 1.462858l0.975238 70.460952s72.655238 19.748571 103.862857-8.533333l2.438095-84.845715c0-2.438095 3.413333-3.169524 4.632381-0.975238l6.095238 11.946667c5.36381 10.727619 16.822857 17.310476 28.769524 16.822857l48.030476-2.194286s-17.310476-17.554286-8.777143-28.525714l-35.59619 1.462857c-2.438095 0-4.87619-1.462857-5.851429-3.657143l-19.017143-45.592381c-8.045714-19.504762-27.062857-32.182857-48.274285-32.182857h-47.055238z" fill="#0F86F5" p-id="3333"></path><path d="M526.140952 150.186667s11.946667 73.630476-21.455238 68.266666c0 0-0.731429 26.331429-27.794285 0.24381l-4.144762-5.851429s8.045714-12.678095 0-19.748571c0 0-2.194286-1.950476-9.996191-4.876191-5.36381-1.950476-10.24-5.851429-12.921905-10.971428-3.169524-5.607619-3.657143-11.459048 9.264762-10.971429 23.649524 0.975238 15.847619-23.649524 15.847619-23.649524l51.2 7.558096z" fill="#FFAE84" p-id="3334"></path><path d="M459.580952 167.009524l12.190477 11.215238c1.462857 1.219048 3.657143 0.487619 3.657142-1.462857l1.706667-21.455238c0.24381-1.462857 1.706667-2.438095 3.169524-1.950477 7.314286 3.657143 27.062857 11.702857 48.030476 5.60762 26.331429-7.801905-69.973333-90.209524-69.729524 6.339047 0.487619 0.731429 0.731429 1.462857 0.975238 1.706667z" fill="#3C5B72" p-id="3335"></path><path d="M368.64 314.514286s5.607619-22.918095-12.434286-26.819048c-11.459048-2.438095-23.161905 5.12-26.331428 16.579048-2.681905 9.508571-0.24381 21.455238 21.942857 30.232381" fill="#FFAE84" p-id="3336"></path><path d="M641.462857 299.641905l19.017143-41.935238c2.194286-4.632381 6.095238-8.289524 10.971429-9.996191l5.851428-2.194286c5.12-1.706667 9.99619 3.169524 8.045714 8.289524l-10.727619 26.575238c-0.487619 1.219048-1.462857 2.194286-2.681904 2.681905l-16.335238 6.339048c-1.219048 0.487619-1.950476 1.219048-2.438096 2.438095l-4.87619 10.24c-0.731429 1.462857-1.950476 2.438095-3.413334 2.681905l-6.339047 1.219047 2.925714-6.339047z" fill="#3C5B72" p-id="3337"></path><path d="M193.340952 526.628571l-4.632381 0.731429v1.950476l-34.864761-16.822857c-3.900952-1.950476-5.851429-4.388571-5.851429-6.826667v-19.260952c0 2.438095 1.950476 5.12 5.851429 6.826667l39.497142 19.017143v14.384761z" fill="#B7DCF6" p-id="3338"></path><path d="M193.340952 531.504762l-4.632381-2.194286v-1.950476l4.632381-0.731429z" fill="#B7DCF6" p-id="3339"></path><path d="M355.230476 522.971429v0.731428c0 0.24381-0.24381 0.487619-0.243809 0.731429 0 0.24381-0.24381 0.487619-0.24381 0.731428-0.24381 0.24381-0.24381 0.487619-0.487619 0.731429l-0.731428 0.731428c-0.24381 0.24381-0.487619 0.487619-0.975239 0.731429-0.487619 0.24381-0.731429 0.731429-1.219047 0.975238-0.487619 0.24381-0.975238 0.487619-1.462857 0.975238l-63.878096 32.914286-1.462857 0.731428c-0.487619 0.24381-0.975238 0.487619-1.706666 0.731429-1.462857 0.487619-2.925714 0.975238-4.632381 1.219048-0.24381 0-0.731429 0-0.975238 0.243809-0.487619 0-0.975238 0.24381-1.462858 0.24381h-7.314285c-1.219048 0-2.438095-0.24381-3.413334-0.487619-0.487619 0-0.975238-0.24381-1.706666-0.24381h-0.24381c-0.487619-0.24381-0.975238-0.24381-1.462857-0.487619-0.487619-0.24381-0.975238-0.24381-1.462857-0.487619l-1.462857-0.731429-42.422857-20.48-27.306667 4.144762v-17.310476l4.632381 2.194286v-4.876191l22.674286-3.413333L258.438095 543.695238c0.487619 0.24381 0.975238 0.487619 1.219048 0.487619 0.487619 0.24381 0.975238 0.487619 1.706667 0.487619h0.243809c0.24381 0 0.487619 0.24381 0.975238 0.24381 0.731429 0.24381 1.462857 0.487619 2.194286 0.487619h0.243809c0.24381 0 0.487619 0 0.731429 0.243809 1.219048 0.24381 2.681905 0.24381 3.900952 0.487619h5.851429c0.731429 0 1.219048 0 1.706667-0.243809 1.219048-0.24381 2.194286-0.487619 3.413333-0.731429 0.731429-0.24381 1.219048-0.24381 1.706667-0.487619h0.243809c0.487619-0.24381 0.975238-0.24381 1.462857-0.487619 0 0 0.24381 0 0.24381-0.243809 0.487619-0.24381 0.731429-0.24381 1.219047-0.487619l63.878096-32.914286 1.462857-0.731429c0.487619-0.24381 0.975238-0.731429 1.219047-0.975238 0.24381-0.24381 0.731429-0.487619 0.975238-0.731428l0.731429-0.731429c0.24381-0.24381 0.24381-0.487619 0.487619-0.731429 0.24381-0.24381 0.24381-0.487619 0.24381-0.731428 0-0.24381 0.24381-0.487619 0.243809-0.731429v-0.731428l0.487619 18.529524z" fill="#B7DCF6" p-id="3340"></path><path d="M258.438095 562.95619l1.462857 0.731429h-0.243809c-0.487619-0.24381-0.975238-0.487619-1.219048-0.731429zM261.36381 564.175238c0.487619 0.24381 0.975238 0.24381 1.462857 0.487619-0.487619 0-0.731429-0.24381-1.219048-0.243809 0-0.24381-0.24381-0.24381-0.243809-0.24381zM263.070476 564.662857c0.487619 0.24381 0.975238 0.24381 1.706667 0.24381-0.487619 0-0.975238-0.24381-1.219048-0.24381h-0.487619zM264.777143 565.150476c1.219048 0.24381 2.194286 0.487619 3.413333 0.487619-0.487619 0-0.975238 0-1.462857-0.243809-0.487619 0-0.975238-0.24381-1.462857-0.24381h-0.487619zM274.285714 565.638095h1.219048-1.219048zM277.942857 565.150476c0.731429-0.24381 1.706667-0.24381 2.438095-0.487619-0.731429 0.24381-1.462857 0.487619-2.438095 0.487619zM280.380952 564.662857l2.194286-0.731428c-0.487619 0.24381-1.219048 0.487619-1.706667 0.487619-0.24381 0.24381-0.24381 0.24381-0.487619 0.243809zM285.744762 562.712381c-0.24381 0.24381-0.731429 0.487619-1.219048 0.487619h-0.243809c0.487619 0 0.975238-0.24381 1.462857-0.487619zM193.340952 531.504762l-4.632381-2.194286v-1.950476l4.632381-0.731429zM258.438095 543.695238c0.975238 0.487619 1.950476 0.975238 2.925715 1.219048-0.487619-0.24381-1.219048-0.487619-1.706667-0.487619-0.487619-0.487619-0.975238-0.487619-1.219048-0.731429zM261.36381 544.914286c0.487619 0.24381 0.731429 0.24381 1.219047 0.243809-0.24381 0-0.487619-0.24381-0.975238-0.243809h-0.243809zM264.777143 545.645714c0.24381 0 0.731429 0.24381 0.975238 0.24381-0.24381 0-0.487619 0-0.731429-0.24381h-0.243809zM274.285714 546.377143h1.219048-1.219048zM275.504762 546.133333c0.731429 0 1.219048-0.24381 1.950476-0.243809-0.731429 0.24381-1.219048 0.24381-1.950476 0.243809zM277.455238 545.889524c0.975238-0.24381 1.706667-0.24381 2.438095-0.487619-0.731429 0.24381-1.706667 0.487619-2.438095 0.487619zM279.893333 545.401905h0zM280.137143 545.401905c0.731429-0.24381 1.706667-0.487619 2.438095-0.731429-0.487619 0.24381-1.219048 0.487619-1.706667 0.487619-0.24381 0.24381-0.487619 0.24381-0.731428 0.24381zM285.744762 543.451429c-0.24381 0.24381-0.731429 0.487619-1.219048 0.487619 0 0-0.24381 0-0.243809 0.243809l1.462857-0.731428z" fill="#B7DCF6" p-id="3341"></path><path d="M349.379048 496.64c7.558095 3.657143 7.801905 9.99619 0.487619 13.653333l-63.878096 32.914286c-7.314286 3.900952-19.748571 3.900952-27.306666 0.24381l-42.422857-20.48-27.306667 4.144761 4.632381-15.11619-39.497143-19.017143c-7.558095-3.657143-7.801905-9.752381-0.487619-13.653333L217.478095 446.171429c7.314286-3.900952 19.748571-3.900952 27.306667-0.24381l104.594286 50.712381z" fill="#FFFFFF" p-id="3342"></path><path d="M285.744762 437.638095h-4.632381c0.24381 0.487619 0.24381 0.975238 0.243809 1.462857 0 1.462857-0.487619 2.681905-1.462857 3.657143-0.975238 0.975238-2.194286 1.462857-3.657143 1.462857s-2.681905-0.487619-3.900952-1.706666l-5.12-5.12h-48.761905l-5.12 5.12c-0.975238 0.975238-2.438095 1.706667-3.900952 1.706666-1.462857 0-2.681905-0.487619-3.657143-1.462857-0.975238-0.975238-1.462857-2.438095-1.462857-3.657143 0-0.487619 0-0.975238 0.243809-1.462857h-5.363809c-4.388571 0-8.045714 3.657143-8.045714 8.045715 0 4.144762 3.413333 7.801905 7.558095 8.045714 0.975238 9.020952 4.144762 25.84381 5.851428 34.620952 1.706667 8.289524 7.314286 15.36 16.091429 15.36h43.398095c9.020952 0 14.628571-7.070476 16.091429-15.36 1.706667-8.777143 4.87619-25.6 5.851428-34.620952 4.144762-0.24381 7.558095-3.657143 7.558096-8.045714 0.24381-4.388571-3.413333-8.045714-7.801905-8.045715z m-59.733333 49.737143c0 2.925714-2.438095 5.12-5.12 5.12-2.925714 0-5.12-2.438095-5.12-5.12v-28.525714c0-2.925714 2.438095-5.12 5.12-5.12 2.925714 0 5.12 2.438095 5.12 5.12v28.525714z m21.699047-0.243809c0 2.925714-2.438095 5.12-5.12 5.12-2.925714 0-5.12-2.438095-5.12-5.12v-28.525715c0-2.438095 1.706667-4.388571 3.900953-5.12h2.681904c2.194286 0.487619 3.900952 2.681905 3.900953 5.12l-0.24381 28.525715z m22.430476 0c0 2.925714-2.438095 5.12-5.12 5.12-2.925714 0-5.12-2.438095-5.12-5.12v-28.525715c0-2.438095 1.706667-4.388571 3.900953-5.12h2.681905c2.194286 0.487619 3.900952 2.681905 3.900952 5.12v28.525715h-0.24381z" fill="#FEBB13" p-id="3343"></path><path d="M278.674286 436.662857l-33.158096-33.158095c-1.462857-1.462857-3.657143-1.462857-5.12 0L207.238095 436.662857c-1.462857 1.462857-1.462857 3.657143 0 5.12 1.462857 1.462857 3.657143 1.462857 5.12 0l30.72-30.72 30.72 30.72c1.462857 1.462857 3.657143 1.462857 5.12 0 1.219048-1.462857 1.219048-3.657143-0.243809-5.12z m-35.84-27.306667c-1.462857 0-2.681905-1.219048-2.681905-2.681904 0-1.462857 1.219048-2.681905 2.681905-2.681905 1.462857 0 2.681905 1.219048 2.681904 2.681905 0 1.462857-1.219048 2.681905-2.681904 2.681904z" fill="#E29F0A" p-id="3344"></path><path d="M747.76381 198.704762l-46.56762-22.674286c-4.632381-2.194286-6.826667-5.12-6.826666-8.289524v-19.260952c0 2.925714 2.438095 6.095238 6.826666 8.289524l46.56762 22.674286v19.260952z" fill="#B7DCF6" p-id="3345"></path><path d="M939.641905 188.708571v0.975239c0 0.24381-0.24381 0.731429-0.24381 0.975238v0.243809c0 0.24381-0.24381 0.24381-0.243809 0.487619 0 0 0 0.24381-0.24381 0.24381 0 0 0 0.24381-0.243809 0.243809 0 0.24381-0.24381 0.24381-0.24381 0.487619v0.24381l-0.243809 0.243809c-0.24381 0.24381-0.24381 0.487619-0.487619 0.731429l-0.975239 0.975238c-0.24381 0.24381-0.731429 0.487619-1.219047 0.731429-0.24381 0-0.24381 0.24381-0.487619 0.243809 0 0-0.24381 0-0.24381 0.24381-0.487619 0.24381-0.975238 0.487619-1.462857 0.975238l-75.824762 39.009524-1.462857 0.731428c-1.462857 0.731429-2.925714 1.219048-4.388571 1.462857-1.219048 0.24381-2.681905 0.731429-4.144762 0.731429-0.975238 0.24381-1.706667 0.24381-2.681905 0.243809-0.731429 0-1.462857 0-2.194286 0.24381H838.704762c-0.731429 0-1.219048 0-1.950476-0.24381-0.731429 0-1.219048-0.24381-1.950476-0.243809-0.731429 0-1.219048-0.24381-1.950477-0.24381-0.731429 0-1.219048-0.24381-1.950476-0.487619-0.731429-0.24381-1.462857-0.24381-1.950476-0.487619-0.731429-0.24381-1.462857-0.487619-2.438095-0.731428l-1.462857-0.731429-50.224762-24.380952-32.182857 4.87619v-19.260952l32.182857-4.876191 50.224762 24.380953 1.462857 0.731428c0.731429 0.24381 1.462857 0.487619 2.438095 0.731429 0.731429 0.24381 1.462857 0.487619 1.950476 0.487619 0.731429 0.24381 1.219048 0.24381 1.950476 0.487619 0.487619 0.24381 1.219048 0.24381 1.950477 0.243809 0.731429 0 1.219048 0.24381 1.950476 0.24381 0.731429 0 1.219048 0 1.950476 0.243809h3.900952c0.731429 0 1.462857 0 2.194286-0.243809 0.975238 0 1.950476-0.24381 2.681905-0.24381 1.462857-0.24381 2.681905-0.487619 4.144762-0.731428 1.462857-0.487619 3.169524-0.975238 4.388571-1.462857l1.462857-0.731429 75.824762-39.009524c0.731429-0.24381 1.219048-0.731429 1.706667-0.975238 0.24381-0.24381 0.487619-0.24381 0.731428-0.487619 0.24381-0.24381 0.487619-0.24381 0.731429-0.487619 0.487619-0.24381 0.731429-0.731429 0.975238-0.975238l0.487619-0.487619c0-0.24381 0.24381-0.24381 0.24381-0.24381 0.24381-0.24381 0.24381-0.487619 0.487619-0.731428 0 0 0-0.24381 0.243809-0.24381 0 0 0-0.24381 0.24381-0.243809 0-0.24381 0.24381-0.487619 0.243809-0.731429 0-0.24381 0.24381-0.731429 0.24381-0.975238v-0.975238 18.773333z" fill="#B7DCF6" p-id="3346"></path><path d="M932.571429 161.158095c9.020952 4.388571 9.264762 11.702857 0.487619 16.335238l-75.824762 39.009524c-8.777143 4.632381-23.405714 4.632381-32.426667 0.24381l-50.224762-24.380953-32.182857 4.876191 5.36381-18.041905-46.56762-22.674286c-9.020952-4.388571-9.264762-11.702857-0.487619-16.335238l75.824762-39.009524c8.777143-4.632381 23.405714-4.632381 32.426667-0.243809l123.611429 60.220952z" fill="#FFFFFF" p-id="3347"></path><path d="M817.737143 117.272381m-50.956191 0a50.95619 50.95619 0 1 0 101.912381 0 50.95619 50.95619 0 1 0-101.912381 0Z" fill="#4AC260" p-id="3348"></path><path d="M849.67619 106.544762l-35.59619 35.59619c-1.219048 1.219048-2.681905 1.706667-4.388571 1.706667-1.462857 0-3.169524-0.487619-4.388572-1.706667l-19.504762-19.504762c-2.438095-2.438095-2.438095-6.339048 0-8.533333 2.438095-2.438095 6.339048-2.438095 8.533334 0L809.447619 129.219048l31.695238-31.207619c2.438095-2.438095 6.339048-2.438095 8.533333 0 2.438095 2.194286 2.438095 6.095238 0 8.533333z" fill="#4AC260" p-id="3349"></path><path d="M849.67619 106.544762l-35.59619 35.59619c-1.219048 1.219048-2.681905 1.706667-4.388571 1.706667s-3.169524-0.487619-4.388572-1.706667l-19.504762-19.504762c-2.438095-2.438095-2.438095-6.339048 0-8.533333 2.438095-2.438095 6.339048-2.438095 8.533334 0L809.447619 129.219048l31.695238-31.207619c2.438095-2.438095 6.339048-2.438095 8.533333 0 2.438095 2.194286 2.438095 6.095238 0 8.533333z" fill="#00A94B" p-id="3350"></path><path d="M389.36381 27.794286v177.980952l-11.459048-18.529524c-1.706667-2.681905-4.388571-4.388571-7.314286-4.388571H84.601905c-5.36381 0-9.752381-4.87619-9.752381-10.971429V27.794286c0-6.095238 4.388571-10.971429 9.752381-10.971429h295.009524c5.36381 0 9.752381 4.87619 9.752381 10.971429z" fill="#E2F4FF" p-id="3351"></path><path d="M349.622857 69.729524H114.102857c-5.36381 0-9.508571-4.144762-9.508571-9.508572s4.144762-9.508571 9.508571-9.508571h235.52c5.36381 0 9.508571 4.144762 9.508572 9.508571s-4.388571 9.508571-9.508572 9.508572zM349.622857 98.255238H114.102857c-5.36381 0-9.508571-4.144762-9.508571-9.508571s4.144762-9.508571 9.508571-9.508572h235.52c5.36381 0 9.508571 4.144762 9.508572 9.508572 0 5.12-4.388571 9.508571-9.508572 9.508571zM180.419048 144.822857H119.954286c-8.533333 0-15.36-6.826667-15.36-15.36s6.826667-15.36 15.36-15.36H180.419048c8.533333 0 15.36 6.826667 15.36 15.36s-6.826667 15.36-15.36 15.36z" fill="#FFFFFF" p-id="3352"></path></svg>